<svg width="171" height="58" viewBox="0 0 171 58" fill="none" xmlns="http://www.w3.org/2000/svg">
<path fill-rule="evenodd" clip-rule="evenodd" d="M41.9562 17.861C45.0457 17.2298 47.6598 15.0206 48.6104 11.7857C49.561 8.59032 48.65 5.19765 46.4716 2.87012C43.3821 3.50131 40.768 5.71049 39.8174 8.94537C39.1044 11.3123 39.4213 13.7582 40.4907 15.8096C40.3323 11.983 42.6692 8.98482 42.6692 8.98482C40.768 13.1665 41.9562 17.861 41.9562 17.861Z" fill="#00C81F"/>
<path d="M24.5288 0.818641C19.9738 0.147996 15.815 3.02782 12.0918 9.45812C9.6757 15.3361 8.28942 21.4508 7.93295 27.7628C7.37843 24.9224 7.14078 21.9242 7.22 18.6499C7.33882 15.4939 7.49726 13.0875 7.65569 11.5095C7.61608 10.7205 7.02196 10.1288 5.7545 9.73427C4.52665 9.37922 3.29879 9.30032 2.11055 9.45812C0.882696 9.65537 0.209357 10.2077 0.0509248 11.0361C-0.186724 16.5196 0.407398 22.871 1.83329 30.0903C3.25918 37.349 5.19998 42.9114 7.65569 46.8959C8.09138 47.4087 8.80433 47.6454 9.6757 47.5271C10.6263 47.4087 11.4977 47.172 12.4087 46.6197C13.2404 46.1463 13.7157 45.5546 13.6761 44.9234C12.6067 40.1894 12.3295 34.7059 12.884 28.5123C13.4385 22.2398 14.6267 16.8352 16.5675 12.3379C18.4687 7.80123 21.0036 5.74985 24.1327 6.22325C26.1923 6.85444 27.1825 9.10307 27.0241 13.0086C26.8656 16.9536 26.3111 21.5692 25.4001 26.9738C24.2515 33.2857 23.5782 39.3215 23.4593 45.0812C23.3009 50.8014 24.7268 54.7463 27.7766 57.0344C28.4104 57.35 29.0045 57.35 29.559 57.0739C30.1135 56.7583 30.5492 56.4032 30.7868 55.8509C31.0245 55.3381 30.9849 54.8647 30.5888 54.3913C29.1629 52.695 28.7272 50.1307 29.1629 46.4619C29.6382 42.8325 30.3908 38.572 31.579 33.7986C32.7673 28.7885 33.7971 23.5811 34.5496 18.2159C35.1437 12.8902 34.3912 8.74803 32.3712 5.74985C30.2719 2.71223 27.6578 1.13424 24.5288 0.818641Z" fill="#005655"/>
<path d="M104.616 41.6095L104.299 29.9324C105.804 27.0921 107.23 24.1728 108.458 21.4113C110.835 15.9673 112.379 10.9966 111.983 8.23512C111.627 5.94704 110.28 4.05345 108.537 3.14611C107.547 2.63326 106.438 2.43601 105.29 2.59381C104.22 2.75161 103.151 3.30391 102.24 4.2507C99.6652 6.89383 98.7542 10.2865 98.477 14.1131C98.1997 21.1746 98.1997 27.8022 98.2393 34.5086C97.4472 35.6921 96.6946 36.8361 96.0213 37.9013C91.9416 43.5031 88.3769 42.6747 87.9808 42.5563C87.5451 42.3985 87.1094 42.0435 86.6738 41.5306C85.9608 40.5444 85.4855 38.6903 85.3667 35.8499C89.0502 34.7847 91.7832 32.6545 93.4864 29.3407C95.1895 26.0269 95.546 22.8709 94.3577 19.9122C93.2883 17.703 91.5456 16.2434 89.1295 15.4544C86.6738 14.6654 84.5349 15.1783 82.6733 16.9929C80.4553 19.6755 78.9898 23.4232 78.2372 28.1572C78.158 28.5912 78.1184 29.0251 78.0392 29.459C78.0392 29.4985 77.9996 29.4985 77.9996 29.5379C77.6035 30.9976 76.9698 32.8517 76.1776 34.9031C75.3854 36.9939 74.5537 38.8086 73.6823 40.3866C72.8109 41.9646 72.0583 42.7536 71.4642 42.7536C70.8305 42.5563 70.5532 41.8068 70.5532 40.5444C70.6325 39.2426 70.7513 37.6646 70.9889 35.8104C71.3058 33.4435 71.5038 31.1948 71.5434 28.8673C71.583 26.5003 71.1474 24.6067 70.276 23.1471C68.4144 20.8196 66.0775 20.1884 63.1861 21.293C60.2551 22.3581 58.2351 25.3563 57.0865 30.248C57.0469 29.4985 57.0865 28.315 57.2053 26.7765C57.3637 25.3168 57.4033 24.0544 57.4033 22.9498C57.2845 22.0425 56.6904 21.4902 55.6606 21.2535C54.5912 20.9774 53.5217 21.0563 52.4919 21.293C51.4621 21.648 50.868 22.2003 50.7492 22.9893C50.7888 25.8297 50.9076 28.4334 51.1056 30.9187C48.6103 38.4536 46.5507 42.3196 44.8079 42.4774C43.0256 42.5958 43.5801 33.4829 45.3625 23.2654C45.4813 22.3187 45.006 21.5691 43.9366 21.0957C42.8671 20.5829 41.7581 20.4251 40.5303 20.504C39.3024 20.6223 38.5499 21.0957 38.0746 21.9242C37.7577 23.5021 36.9259 30.1297 36.7675 33.7196C36.6487 37.2306 37.0051 40.6233 37.9161 43.7004C38.7875 46.8169 40.6491 48.4738 43.3821 48.7499C46.3131 48.4343 48.6895 46.3435 50.5511 42.438C51.1452 41.2545 51.6602 40.071 52.1355 38.927C52.4523 40.6233 52.8484 42.2013 53.3237 43.6609C53.7594 44.6472 54.5119 45.1206 55.621 45.2389C56.6904 45.3967 57.7202 45.1206 58.6312 44.5683C59.5818 44.0554 59.9779 43.3059 59.8987 42.3196C59.2649 38.8875 59.3441 35.8499 59.9779 33.1673C60.6116 30.4847 61.4434 28.5517 62.4732 27.3288C63.4634 26.1058 64.2159 26.0269 64.7704 27.0132C65.1665 28.315 65.1269 30.5242 64.6912 33.6407C64.2555 37.0728 64.1763 40.3077 64.5724 43.3848C65.0081 46.5013 66.8697 48.1187 70.1572 48.316C71.8999 48.316 73.5238 47.0931 74.9893 44.6866C76.2568 42.6747 77.2866 40.505 78.1976 38.2563C78.3957 39.282 78.6729 40.2683 79.0294 41.215C80.4157 45.16 83.1882 47.2508 87.5055 47.4875H87.5451C87.5451 47.4875 87.5451 47.4875 87.5451 47.4481C89.882 47.6453 93.922 46.7775 98.2789 40.2683C98.2789 42.6352 98.3186 45.0417 98.3186 47.527H116.182V41.6884H104.616V41.6095ZM86.3569 24.4884C87.3471 21.7664 88.1789 20.2278 89.0502 19.9517C89.882 19.6361 90.1593 21.2141 89.7632 24.6856C89.4463 26.382 88.8522 27.8022 87.862 29.0645C86.8718 30.2875 85.9608 30.9976 85.129 31.3132C85.2479 28.9462 85.6043 26.6976 86.3569 24.4884ZM103.903 16.0462C103.824 14.0342 103.864 6.06538 107.626 6.57823C108.379 6.69658 109.132 7.80117 109.171 8.74796C109.448 10.6021 107.785 16.0856 105.725 20.8196C105.25 22.0031 104.735 23.1471 104.141 24.2911L103.903 16.0462Z" fill="#005655"/>
<path d="M170.643 29.183C170.366 27.9995 169.93 26.8949 169.336 25.8692C168.742 24.8435 168.069 23.9362 167.276 23.1077C166.484 22.3187 165.573 21.6086 164.543 21.0563C163.514 20.504 162.405 20.0701 161.256 19.7545C160.107 19.4784 158.84 19.3206 157.533 19.3206C156.186 19.3206 154.919 19.4784 153.691 19.7545C152.503 20.0307 151.354 20.504 150.324 21.0563C149.294 21.6481 148.344 22.3582 147.512 23.1866C146.68 24.0151 146.007 24.9619 145.413 26.0665C144.819 27.1316 144.422 28.3151 144.106 29.538C143.828 30.761 143.67 32.1023 143.67 33.5224C143.67 34.9426 143.828 36.2839 144.106 37.5069C144.422 38.7692 144.858 39.9133 145.452 41.0179C146.046 42.083 146.759 43.0693 147.591 43.8977C148.423 44.7262 149.373 45.4362 150.403 46.0674C151.473 46.6592 152.582 47.0931 153.77 47.4087C154.958 47.7243 156.226 47.8427 157.533 47.8427C159.157 47.8427 160.662 47.6454 162.008 47.2509C163.395 46.8564 164.623 46.2252 165.732 45.4362C166.841 44.6078 167.752 43.7005 168.504 42.6353C169.257 41.6096 169.851 40.4261 170.287 39.1637L170.445 38.6509H163.632L163.514 38.8482C162.919 40.0316 162.127 40.939 161.137 41.5307C160.147 42.1225 158.919 42.3986 157.493 42.3986C156.503 42.3986 155.592 42.2408 154.721 41.9252C153.889 41.6096 153.136 41.1362 152.463 40.5445C151.79 39.9133 151.235 39.2032 150.879 38.4142C150.562 37.7041 150.324 36.9151 150.205 36.0472H170.722L170.762 35.7316C170.841 35.2977 170.881 34.8637 170.92 34.3903C170.96 33.9169 170.96 33.4435 170.96 32.9307C171.079 31.6289 170.92 30.3665 170.643 29.183ZM150.364 30.8004C150.483 29.972 150.72 29.2224 151.077 28.5518C151.473 27.7628 151.988 27.0921 152.621 26.5004C153.255 25.9087 153.968 25.4747 154.76 25.1986C155.552 24.9224 156.384 24.7646 157.295 24.7646C158.325 24.7646 159.236 24.9224 160.107 25.1986C160.939 25.4747 161.731 25.9481 162.405 26.5004C163.078 27.0921 163.593 27.7628 163.949 28.5123C164.266 29.183 164.425 29.9325 164.464 30.761H150.364V30.8004Z" fill="#005655"/>
<path d="M124.975 19.7939H118.637C118.637 29.0252 118.677 38.2169 118.677 47.4482H125.014L124.975 20.1884V19.7939Z" fill="#005655"/>
<path d="M137.65 19.7941V18.295C137.65 17.5454 137.729 16.9142 137.887 16.4014C138.046 15.928 138.244 15.5335 138.561 15.2574C138.878 14.9812 139.274 14.784 139.828 14.6262C140.383 14.4684 141.096 14.3895 141.888 14.3895H142.244V8.98486H141.848C140.066 8.98486 138.482 9.18211 137.175 9.53716C135.828 9.89221 134.719 10.4445 133.847 11.194C132.105 12.6931 131.273 15.0207 131.273 18.2161V19.7546H128.104V25.0409H131.273L131.313 47.3694H137.689L137.65 25.0409H142.284H142.64V19.7546H137.65V19.7941Z" fill="#005655"/>
<path fill-rule="evenodd" clip-rule="evenodd" d="M117.886 13.048C117.886 13.6003 117.965 14.1131 118.163 14.5865C118.361 15.0599 118.638 15.4939 119.034 15.8489C119.43 16.2434 119.826 16.5196 120.302 16.7168C120.777 16.9141 121.292 16.993 121.846 16.993C122.401 16.993 122.876 16.9141 123.352 16.7168C123.827 16.5196 124.223 16.2434 124.619 15.8489C125.015 15.4544 125.292 15.0599 125.451 14.5865C125.649 14.1131 125.728 13.6003 125.728 13.048C125.728 12.4957 125.649 11.9829 125.451 11.5095C125.253 11.0361 124.975 10.6021 124.579 10.2471C124.183 9.85257 123.787 9.57642 123.312 9.37918C122.837 9.18193 122.361 9.10303 121.807 9.10303C121.252 9.10303 120.737 9.18193 120.262 9.37918C119.787 9.57642 119.351 9.85257 118.995 10.2076C118.599 10.6021 118.321 10.9966 118.163 11.47C118.004 11.9829 117.886 12.4957 117.886 13.048Z" fill="#00C81F"/>
</svg>
