<svg width="161" height="67" viewBox="0 0 161 67" fill="none" xmlns="http://www.w3.org/2000/svg">
<path fill-rule="evenodd" clip-rule="evenodd" d="M44.5955 24.3152C47.1429 23.7948 49.2984 21.9732 50.0822 19.3058C50.8661 16.671 50.1149 13.8735 48.3186 11.9543C45.7712 12.4748 43.6157 14.2964 42.8319 16.9638C42.244 18.9155 42.5053 20.9323 43.3871 22.6238C43.2564 19.4685 45.1833 16.9963 45.1833 16.9963C43.6157 20.4443 44.5955 24.3152 44.5955 24.3152Z" fill="#00C81F"/>
<path d="M30.2255 10.2628C26.4696 9.7098 23.0404 12.0844 19.9704 17.3866C17.9782 22.2333 16.8351 27.2753 16.5412 32.4799C16.084 30.1378 15.888 27.6656 15.9533 24.9658C16.0513 22.3635 16.1819 20.3792 16.3126 19.0781C16.2799 18.4275 15.79 17.9396 14.7449 17.6143C13.7325 17.3215 12.7201 17.2565 11.7403 17.3866C10.7278 17.5492 10.1726 18.0046 10.042 18.6877C9.84603 23.2092 10.3359 28.4463 11.5117 34.3991C12.6874 40.3843 14.2877 44.9709 16.3126 48.2563C16.6718 48.6792 17.2597 48.8743 17.9782 48.7767C18.762 48.6792 19.4805 48.484 20.2317 48.0286C20.9176 47.6382 21.3095 47.1503 21.2768 46.6299C20.395 42.7264 20.1664 38.2049 20.6236 33.0979C21.0809 27.9259 22.0606 23.4694 23.6609 19.7612C25.2286 16.0204 27.3188 14.3289 29.8989 14.7192C31.5972 15.2397 32.4136 17.0938 32.283 20.3141C32.1524 23.567 31.6951 27.3729 30.944 31.8293C29.9969 37.0339 29.4416 42.0108 29.3437 46.76C29.213 51.4766 30.3888 54.7295 32.9035 56.6162C33.4261 56.8764 33.916 56.8764 34.3732 56.6487C34.8304 56.3885 35.1897 56.0957 35.3856 55.6403C35.5816 55.2174 35.5489 54.8271 35.2223 54.4367C34.0466 53.038 33.6874 50.9236 34.0466 47.8985C34.4385 44.9058 35.0591 41.3927 36.0388 37.4568C37.0186 33.3256 37.8678 29.0318 38.4883 24.6079C38.9782 20.2166 38.3576 16.8011 36.692 14.3289C34.9611 11.8242 32.8056 10.523 30.2255 10.2628Z" fill="#005655"/>
<path d="M96.2625 43.8975L96.0013 34.269C97.2423 31.9269 98.4181 29.5198 99.4305 27.2428C101.39 22.7538 102.664 18.6552 102.337 16.3782C102.043 14.4915 100.933 12.9302 99.4958 12.182C98.6793 11.7591 97.7649 11.5965 96.8177 11.7266C95.9359 11.8567 95.0541 12.3121 94.303 13.0928C92.1801 15.2722 91.429 18.0697 91.2003 21.225C90.9717 27.0476 90.9717 32.5124 91.0044 38.0423C90.3512 39.0182 89.7307 39.9615 89.1755 40.8398C85.8115 45.4588 82.8722 44.7757 82.5456 44.6782C82.1864 44.548 81.8271 44.2553 81.4679 43.8324C80.88 43.0192 80.4881 41.4903 80.3901 39.1483C83.4274 38.27 85.6809 36.5135 87.0853 33.781C88.4896 31.0486 88.7836 28.4463 87.8038 26.0067C86.922 24.1851 85.485 22.9815 83.4927 22.3309C81.4678 21.6804 79.7043 22.1032 78.1693 23.5996C76.3403 25.8115 75.1319 28.9017 74.5114 32.8052C74.4461 33.163 74.4134 33.5208 74.3481 33.8786C74.3481 33.9112 74.3155 33.9112 74.3155 33.9437C73.9889 35.1472 73.4663 36.6761 72.8131 38.3676C72.1599 40.0916 71.4741 41.5879 70.7556 42.8891C70.0371 44.1902 69.4166 44.8408 68.9267 44.8408C68.4041 44.6782 68.1755 44.0601 68.1755 43.0192C68.2408 41.9457 68.3388 40.6446 68.5348 39.1157C68.796 37.164 68.9593 35.3099 68.992 33.3907C69.0246 31.439 68.6654 29.8776 67.9469 28.674C66.4119 26.7548 64.485 26.2344 62.1009 27.1452C59.6841 28.0235 58.0184 30.4956 57.0713 34.5292C57.0387 33.9112 57.0713 32.9353 57.1693 31.6667C57.2999 30.4631 57.3326 29.4222 57.3326 28.5114C57.2346 27.7632 56.7447 27.3078 55.8956 27.1127C55.0138 26.885 54.132 26.95 53.2828 27.1452C52.4337 27.438 51.9438 27.8934 51.8458 28.5439C51.8785 30.886 51.9765 33.0329 52.1398 35.0822C50.0822 41.2952 48.3839 44.483 46.9469 44.6131C45.4773 44.7107 45.9345 37.1966 47.4042 28.7716C47.5021 27.9909 47.1102 27.3729 46.2284 26.9825C45.3466 26.5597 44.4322 26.4296 43.4197 26.4946C42.4073 26.5922 41.7867 26.9825 41.3948 27.6657C41.1336 28.9668 40.4477 34.4316 40.3171 37.3917C40.2191 40.2868 40.513 43.0842 41.2642 45.6215C41.9827 48.1912 43.5177 49.5575 45.7712 49.7852C48.188 49.5249 50.1475 47.8009 51.6825 44.5806C52.1724 43.6047 52.597 42.6288 52.9889 41.6855C53.2502 43.0842 53.5768 44.3854 53.9687 45.589C54.3279 46.4022 54.9485 46.7925 55.8629 46.8901C56.7447 47.0202 57.5939 46.7925 58.345 46.3371C59.1289 45.9142 59.4555 45.2962 59.3901 44.483C58.8676 41.653 58.9329 39.1483 59.4555 36.9363C59.978 34.7244 60.6638 33.1305 61.513 32.1221C62.3295 31.1137 62.95 31.0486 63.4072 31.8619C63.7338 32.9353 63.7012 34.7569 63.3419 37.3267C62.9827 40.1567 62.9173 42.824 63.2439 45.3613C63.6032 47.931 65.1382 49.2647 67.8489 49.4273C69.2859 49.4273 70.6249 48.419 71.8333 46.4347C72.8784 44.7757 73.7276 42.9867 74.4788 41.1325C74.6421 41.9783 74.8707 42.7915 75.1646 43.5722C76.3077 46.825 78.5938 48.5491 82.1537 48.7442H82.1864C82.1864 48.7442 82.1864 48.7442 82.1864 48.7117C84.1133 48.8744 87.4445 48.1587 91.037 42.7915C91.037 44.7432 91.0697 46.7275 91.0697 48.7768H105.799V43.9625H96.2625V43.8975ZM81.2066 29.78C82.0231 27.5355 82.7089 26.2669 83.4274 26.0392C84.1133 25.779 84.3419 27.0801 84.0153 29.9427C83.754 31.3414 83.2641 32.5124 82.4476 33.5533C81.6311 34.5617 80.88 35.1472 80.1941 35.4075C80.2921 33.4558 80.586 31.6016 81.2066 29.78ZM95.6747 22.8189C95.6094 21.1599 95.642 14.5891 98.7447 15.012C99.3652 15.1096 99.9857 16.0204 100.018 16.8011C100.247 18.3299 98.8753 22.8514 97.177 26.7548C96.7851 27.7307 96.3605 28.674 95.8706 29.6174L95.6747 22.8189Z" fill="#005655"/>
<path d="M150.706 33.6508C150.477 32.675 150.118 31.7642 149.628 30.9184C149.138 30.0727 148.583 29.3245 147.93 28.6414C147.277 27.9909 146.525 27.4053 145.676 26.9499C144.827 26.4945 143.913 26.1367 142.965 25.8765C142.018 25.6488 140.973 25.5187 139.895 25.5187C138.785 25.5187 137.74 25.6488 136.728 25.8765C135.748 26.1042 134.801 26.4945 133.951 26.9499C133.102 27.4379 132.319 28.0234 131.633 28.7065C130.947 29.3896 130.392 30.1703 129.902 31.0811C129.412 31.9594 129.085 32.9352 128.824 33.9436C128.595 34.952 128.465 36.058 128.465 37.229C128.465 38.4 128.595 39.506 128.824 40.5144C129.085 41.5553 129.445 42.4986 129.934 43.4095C130.424 44.2877 131.012 45.1009 131.698 45.784C132.384 46.4671 133.168 47.0527 134.017 47.5731C134.899 48.0611 135.813 48.4189 136.793 48.6791C137.773 48.9393 138.818 49.0369 139.895 49.0369C141.235 49.0369 142.476 48.8743 143.586 48.549C144.729 48.2237 145.742 47.7032 146.656 47.0527C147.57 46.3696 148.322 45.6214 148.942 44.7431C149.563 43.8974 150.053 42.9215 150.412 41.8806L150.542 41.4577H144.925L144.827 41.6204C144.337 42.5962 143.684 43.3444 142.867 43.8323C142.051 44.3203 141.039 44.548 139.863 44.548C139.046 44.548 138.295 44.4178 137.577 44.1576C136.891 43.8974 136.27 43.507 135.715 43.0191C135.16 42.4986 134.703 41.9131 134.409 41.2626C134.147 40.677 133.951 40.0265 133.854 39.3108H150.771L150.804 39.0506C150.869 38.6928 150.902 38.335 150.934 37.9446C150.967 37.5543 150.967 37.1639 150.967 36.7411C151.065 35.6676 150.934 34.6267 150.706 33.6508ZM133.984 34.9845C134.082 34.3014 134.278 33.6834 134.572 33.1304C134.899 32.4798 135.323 31.9268 135.846 31.4389C136.368 30.951 136.956 30.5932 137.609 30.3654C138.263 30.1377 138.948 30.0076 139.7 30.0076C140.549 30.0076 141.3 30.1377 142.018 30.3654C142.704 30.5932 143.357 30.9835 143.913 31.4389C144.468 31.9268 144.892 32.4798 145.186 33.0979C145.448 33.6508 145.578 34.2689 145.611 34.952H133.984V34.9845Z" fill="#005655"/>
<path d="M113.049 25.9091H107.824C107.824 33.5208 107.857 41.1 107.857 48.7117H113.082L113.049 26.2343V25.9091Z" fill="#005655"/>
<path d="M123.501 25.9091V24.673C123.501 24.0549 123.566 23.5345 123.697 23.1116C123.827 22.7213 123.991 22.396 124.252 22.1683C124.513 21.9406 124.84 21.7779 125.297 21.6478C125.754 21.5177 126.342 21.4526 126.995 21.4526H127.289V16.9962H126.963C125.493 16.9962 124.187 17.1589 123.109 17.4516C121.998 17.7444 121.084 18.1998 120.365 18.8178C118.928 20.0539 118.243 21.9731 118.243 24.6079V25.8765H115.63V30.2354H118.243L118.275 48.6466H123.533L123.501 30.2354H127.322H127.616V25.8765H123.501V25.9091Z" fill="#005655"/>
<path fill-rule="evenodd" clip-rule="evenodd" d="M107.204 20.3466C107.204 20.802 107.269 21.2249 107.433 21.6152C107.596 22.0056 107.824 22.3634 108.151 22.6562C108.478 22.9814 108.804 23.2091 109.196 23.3718C109.588 23.5344 110.013 23.5995 110.47 23.5995C110.927 23.5995 111.319 23.5344 111.711 23.3718C112.103 23.2091 112.429 22.9814 112.756 22.6562C113.083 22.3309 113.311 22.0056 113.442 21.6152C113.605 21.2249 113.67 20.802 113.67 20.3466C113.67 19.8912 113.605 19.4683 113.442 19.078C113.279 18.6877 113.05 18.3298 112.723 18.0371C112.397 17.7118 112.07 17.4841 111.678 17.3215C111.286 17.1588 110.894 17.0938 110.437 17.0938C109.98 17.0938 109.555 17.1588 109.163 17.3215C108.772 17.4841 108.412 17.7118 108.118 18.0046C107.792 18.3298 107.563 18.6551 107.433 19.0455C107.302 19.4683 107.204 19.8912 107.204 20.3466Z" fill="#00C81F"/>
</svg>
