<svg width="139" height="46" viewBox="0 0 139 46" fill="none" xmlns="http://www.w3.org/2000/svg">
<path fill-rule="evenodd" clip-rule="evenodd" d="M34.1047 13.9456C36.616 13.4325 38.741 11.6367 39.5137 9.00722C40.2864 6.40977 39.5459 3.65198 37.7751 1.76001C35.2638 2.27309 33.1389 4.06885 32.3662 6.69837C31.7866 8.62241 32.0442 10.6106 32.9135 12.2781C32.7847 9.16755 34.6843 6.73044 34.6843 6.73044C33.1389 10.1296 34.1047 13.9456 34.1047 13.9456Z" fill="#00C81F"/>
<path d="M19.9386 0.0923654C16.236 -0.452778 12.8554 1.88813 9.82901 7.1151C7.86505 11.8931 6.73818 16.8636 6.44842 21.9943C5.99767 19.6855 5.8045 17.2484 5.86889 14.5868C5.96548 12.0214 6.09426 10.0653 6.22305 8.7826C6.19085 8.14125 5.70791 7.66024 4.67763 7.33957C3.67955 7.05097 2.68147 6.98683 1.71559 7.1151C0.717513 7.27544 0.170179 7.72438 0.041395 8.39779C-0.151782 12.8551 0.33116 18.018 1.49022 23.8863C2.64928 29.7867 4.22689 34.3082 6.22305 37.5469C6.5772 37.9638 7.15673 38.1562 7.86505 38.06C8.63775 37.9638 9.34607 37.7714 10.0866 37.3225C10.7627 36.9377 11.149 36.4567 11.1169 35.9436C10.2476 32.0955 10.0222 27.6382 10.4729 22.6036C10.9237 17.5049 11.8896 13.1117 13.4672 9.45601C15.0126 5.76827 17.0731 4.10078 19.6166 4.48558C21.2908 4.99866 22.0957 6.82649 21.9669 10.0012C21.8382 13.2079 21.3874 16.9598 20.6469 21.353C19.7132 26.4837 19.1659 31.39 19.0693 36.0719C18.9405 40.7216 20.0996 43.9283 22.5787 45.7882C23.0938 46.0448 23.5767 46.0448 24.0275 45.8203C24.4782 45.5638 24.8324 45.2752 25.0256 44.8262C25.2187 44.4093 25.1865 44.0245 24.8646 43.6397C23.7055 42.2608 23.3514 40.1765 23.7055 37.1942C24.0919 34.244 24.7036 30.7808 25.6695 26.9006C26.6354 22.8281 27.4725 18.5952 28.0842 14.234C28.5671 9.90495 27.9554 6.53789 26.3134 4.10078C24.607 1.63159 22.4821 0.348904 19.9386 0.0923654Z" fill="#005655"/>
<path d="M85.0389 33.2498L84.7814 23.7579C86.0048 21.4491 87.1639 19.0761 88.1619 16.8314C90.0937 12.4061 91.3494 8.36563 91.0274 6.12092C90.7376 4.26102 89.643 2.72179 88.2263 1.98424C87.4214 1.56737 86.5199 1.40703 85.5863 1.5353C84.717 1.66357 83.8477 2.11251 83.1072 2.88213C81.0144 5.03064 80.2739 7.78842 80.0485 10.8989C79.8232 16.639 79.8232 22.0263 79.8553 27.4777C79.2114 28.4398 78.5997 29.3697 78.0524 30.2355C74.7362 34.7891 71.8385 34.1157 71.5166 34.0195C71.1624 33.8912 70.8082 33.6026 70.4541 33.1857C69.8746 32.384 69.4882 30.8769 69.3916 28.568C72.3859 27.7022 74.6074 25.9706 75.9918 23.2769C77.3762 20.5833 77.666 18.0179 76.7001 15.6128C75.8308 13.8171 74.4142 12.6306 72.4502 11.9892C70.4541 11.3479 68.7155 11.7648 67.2023 13.2399C65.3993 15.4204 64.208 18.4668 63.5963 22.3149C63.5319 22.6676 63.4997 23.0204 63.4353 23.3731C63.4353 23.4052 63.4031 23.4052 63.4031 23.4373C63.0812 24.6237 62.566 26.1309 61.9221 27.7984C61.2782 29.498 60.6021 30.9731 59.8938 32.2558C59.1855 33.5385 58.5737 34.1798 58.0908 34.1798C57.5757 34.0195 57.3503 33.4102 57.3503 32.384C57.4147 31.3258 57.5113 30.0431 57.7044 28.536C57.962 26.6119 58.123 24.7841 58.1552 22.8921C58.1874 20.9681 57.8332 19.4288 57.1249 18.2424C55.6117 16.3504 53.7121 15.8373 51.3618 16.7352C48.9793 17.601 47.3373 20.0381 46.4036 24.0145C46.3714 23.4052 46.4036 22.4432 46.5002 21.1925C46.629 20.0061 46.6612 18.9799 46.6612 18.082C46.5646 17.3445 46.0816 16.8955 45.2445 16.7031C44.3752 16.4787 43.506 16.5428 42.6689 16.7352C41.8318 17.0238 41.3488 17.4727 41.2522 18.1141C41.2844 20.4229 41.381 22.5394 41.542 24.5596C39.5136 30.6845 37.8394 33.8271 36.4228 33.9553C34.974 34.0515 35.4247 26.644 36.8736 18.3386C36.9701 17.5689 36.5838 16.9597 35.7145 16.5749C34.8452 16.158 33.9437 16.0297 32.9456 16.0938C31.9476 16.1901 31.3358 16.5749 30.9495 17.2483C30.6919 18.531 30.0158 23.9183 29.887 26.8364C29.7904 29.6904 30.0802 32.4482 30.8207 34.9494C31.529 37.4827 33.0422 38.8296 35.2638 39.054C37.6463 38.7975 39.578 37.0979 41.0912 33.9233C41.5742 32.9612 41.9927 31.9992 42.3791 31.0693C42.6367 32.4482 42.9586 33.7309 43.345 34.9173C43.6991 35.719 44.3109 36.1038 45.2123 36.2C46.0816 36.3283 46.9187 36.1038 47.6593 35.6549C48.432 35.238 48.7539 34.6287 48.6895 33.8271C48.1744 31.0372 48.2388 28.568 48.7539 26.3874C49.2691 24.2069 49.9452 22.6356 50.7823 21.6415C51.5872 20.6474 52.1989 20.5833 52.6496 21.385C52.9716 22.4432 52.9394 24.2389 52.5853 26.7723C52.2311 29.5621 52.1667 32.1916 52.4887 34.6929C52.8428 37.2262 54.356 38.541 57.0283 38.7013C58.4449 38.7013 59.765 37.7072 60.9562 35.7511C61.9865 34.1157 62.8236 32.352 63.5641 30.5241C63.7251 31.3579 63.9505 32.1596 64.2402 32.9292C65.3671 36.1359 67.6208 37.8355 71.1302 38.0279H71.1624C71.1624 38.0279 71.1624 38.0279 71.1624 37.9958C73.062 38.1561 76.346 37.4507 79.8875 32.1596C79.8875 34.0836 79.9197 36.0397 79.9197 38.0599H94.4402V33.314H85.0389V33.2498ZM70.1965 19.3326C71.0014 17.12 71.6775 15.8694 72.3859 15.6449C73.062 15.3884 73.2873 16.6711 72.9654 19.493C72.7078 20.8719 72.2249 22.0263 71.42 23.0525C70.6151 24.0465 69.8746 24.6237 69.1984 24.8803C69.295 22.9562 69.5848 21.1284 70.1965 19.3326ZM84.4594 12.4702C84.395 10.8348 84.4272 4.35722 87.4858 4.7741C88.0976 4.8703 88.7093 5.76818 88.7415 6.5378C88.9668 8.04496 87.6146 12.5023 85.9404 16.3504C85.5541 17.3124 85.1355 18.2424 84.6526 19.1723L84.4594 12.4702Z" fill="#005655"/>
<path d="M138.71 23.1487C138.485 22.1866 138.13 21.2888 137.647 20.455C137.164 19.6213 136.617 18.8837 135.973 18.2103C135.329 17.569 134.589 16.9917 133.752 16.5428C132.915 16.0939 132.013 15.7411 131.079 15.4846C130.146 15.2601 129.115 15.1318 128.053 15.1318C126.958 15.1318 125.928 15.2601 124.93 15.4846C123.964 15.709 123.03 16.0939 122.193 16.5428C121.356 17.0238 120.583 17.601 119.907 18.2744C119.231 18.9478 118.684 19.7175 118.201 20.6153C117.718 21.4812 117.396 22.4432 117.139 23.4373C116.913 24.4313 116.784 25.5216 116.784 26.6761C116.784 27.8305 116.913 28.9208 117.139 29.9149C117.396 30.941 117.75 31.871 118.233 32.7688C118.716 33.6347 119.296 34.4363 119.972 35.1098C120.648 35.7832 121.421 36.3604 122.258 36.8735C123.127 37.3545 124.028 37.7072 124.994 37.9637C125.96 38.2203 126.991 38.3165 128.053 38.3165C129.373 38.3165 130.596 38.1561 131.691 37.8355C132.818 37.5148 133.816 37.0017 134.718 36.3604C135.619 35.687 136.36 34.9494 136.971 34.0836C137.583 33.2499 138.066 32.2878 138.42 31.2617L138.549 30.8448H133.011L132.915 31.0051C132.432 31.9672 131.788 32.7047 130.983 33.1857C130.178 33.6667 129.18 33.8912 128.021 33.8912C127.216 33.8912 126.475 33.7629 125.767 33.5064C125.091 33.2499 124.479 32.865 123.932 32.384C123.385 31.871 122.934 31.2937 122.644 30.6524C122.386 30.0752 122.193 29.4338 122.097 28.7284H138.774L138.806 28.4718C138.871 28.1191 138.903 27.7663 138.935 27.3815C138.967 26.9967 138.967 26.6119 138.967 26.1951C139.064 25.1368 138.935 24.1107 138.71 23.1487ZM122.226 24.4634C122.322 23.79 122.515 23.1807 122.805 22.6356C123.127 21.9942 123.546 21.4491 124.061 20.9681C124.576 20.4871 125.155 20.1343 125.799 19.9099C126.443 19.6854 127.119 19.5571 127.86 19.5571C128.697 19.5571 129.437 19.6854 130.146 19.9099C130.822 20.1343 131.466 20.5191 132.013 20.9681C132.56 21.4491 132.979 21.9942 133.269 22.6035C133.526 23.1487 133.655 23.7579 133.687 24.4313H122.226V24.4634Z" fill="#005655"/>
<path d="M101.588 15.5166H96.4363C96.4363 23.0203 96.4685 30.492 96.4685 37.9958H101.62L101.588 15.8373V15.5166Z" fill="#005655"/>
<path d="M112.212 15.5291V14.3106C112.212 13.7013 112.277 13.1882 112.406 12.7713C112.534 12.3865 112.695 12.0658 112.953 11.8414C113.211 11.6169 113.533 11.4566 113.983 11.3283C114.434 11.2 115.014 11.1359 115.657 11.1359H115.947V6.74268H115.625C114.176 6.74268 112.889 6.90301 111.826 7.19162C110.731 7.48022 109.83 7.92917 109.122 8.53844C107.705 9.757 107.029 11.649 107.029 14.2464V15.497H104.453V19.7941H107.029L107.061 37.9441H112.245L112.212 19.7941H115.979H116.269V15.497H112.212V15.5291Z" fill="#005655"/>
<path fill-rule="evenodd" clip-rule="evenodd" d="M95.8251 10.0331C95.8251 10.4821 95.8895 10.899 96.0505 11.2838C96.2115 11.6686 96.4369 12.0213 96.7588 12.3099C97.0808 12.6306 97.4027 12.8551 97.7891 13.0154C98.1755 13.1757 98.594 13.2399 99.0447 13.2399C99.4955 13.2399 99.8818 13.1757 100.268 13.0154C100.655 12.8551 100.977 12.6306 101.298 12.3099C101.62 11.9892 101.846 11.6686 101.975 11.2838C102.136 10.899 102.2 10.4821 102.2 10.0331C102.2 9.5842 102.136 9.16733 101.975 8.78252C101.814 8.39771 101.588 8.04497 101.266 7.75637C100.944 7.43569 100.622 7.21122 100.236 7.05089C99.8496 6.89055 99.4633 6.82642 99.0125 6.82642C98.5618 6.82642 98.1433 6.89055 97.7569 7.05089C97.3705 7.21122 97.0164 7.43569 96.7266 7.7243C96.4047 8.04497 96.1793 8.36565 96.0505 8.75045C95.9217 9.16733 95.8251 9.5842 95.8251 10.0331Z" fill="#00C81F"/>
</svg>
